<svg xmlns="http://www.w3.org/2000/svg" viewBox="0 0 64 64" fill="none">
  <rect width="64" height="64" fill="#fdfdfc"/>
  <g transform="translate(31 31) scale(1.3) translate(-17.85 -21.6)" stroke="hsl(230, 8%, 30%)" stroke-width="1.4" stroke-linecap="round" stroke-linejoin="round">
    <path d="M5.6 19.5L6.2 29.6Q17 35 27.8 29.6L28.4 19.5Z" fill="#fdfdfc"/>
    <path d="M6.4 26.4Q17 31.4 27.6 26.4" stroke-width="1.1"/>
    <path d="M17 9L37 16.4L37 18.1L17 25.6L-3 18.1L-3 16.4Z" fill="#fdfdfc"/>
    <path d="M17 9L37 16.4L17 23.9L-3 16.4Z"/>
    <path d="M-3 16.4L-3 18.1L17 25.6L37 18.1L37 16.4"/>
    <path d="M17 16.4L35.6 16.9" stroke-width="1.1"/>
    <circle cx="17" cy="16.4" r="1.15" fill="hsl(230, 8%, 30%)" stroke="none"/>
    <path d="M35.6 16.9Q37.4 17.6 37.2 20.6L37.1 23.2" stroke-width="1.1"/>
    <path d="M35.9 23.4L38.3 23.4L38.1 25.1L36.1 25.1Z" fill="hsl(44, 70%, 55%)"/>
    <g stroke="hsl(44, 70%, 45%)" stroke-width="1.1">
      <path d="M36.3 25.2L35.4 31.6"/>
      <path d="M36.8 25.3L36.5 32.2"/>
      <path d="M37.4 25.3L37.6 32.2"/>
      <path d="M37.9 25.2L38.7 31.6"/>
    </g>
  </g>
</svg>
